<svg xmlns="http://www.w3.org/2000/svg" viewBox="0 0 545.6 527.12"><defs><style>.cls-1{fill:#dedede;}.cls-2{fill:#2f3031;}.cls-3{fill:#9b3515;}.cls-4{fill:#76250b;}</style></defs><g id="Layer_6_Image" data-name="Layer 6 Image"><path class="cls-1" d="M2.88,210.53c1-3.56,5.68-27.74,6.78-28.86C19.73,171.39,93.05,96,93.19,95.82c2.44-3.27,5.12-4.4,9.46-2.95,7.1,2.38,14.48,4,21.72,5.94,2.87.78,3.76.15,4.33-2.76,1-4.89,1.84-28.65,2.09-35.59.2-5.9,3.82-10,8-13.61,9.23-8,18.29-16.21,27.27-24.5,2.92-2.71,23.36-8.87,30-10.92a28.57,28.57,0,0,1,19.13.45c31.2,11.72,62.36,23.53,93.58,35.2,5.49,2.05,86.28,10.64,88.76,11.37,1.91.55,28.33-9.1,39.44-14a16.77,16.77,0,0,1,14.64.68c16.88,8.75,33.56,17.89,50.27,26.95,2,1.08,19.78,77.38,20.92,84.07.28,1.68-3.48,23.56-3.07,24.53,2.9,6.74,5.07,13.79,9.22,20,2.78,4.13,13.64,11.63,13.85,13.85.52,5.32,5.51,78.3,5.64,91.11,0,2.55-12.82,24.74-18.24,33.6-2,3.27-70.4,61.48-76.74,67.21-1.57,1.42-27,7.59-37.74,9.87-3.09.65-5.46,21.66-6.36,30.23-.37,3.57,20.73,33.33,24.15,36.08,1.85,1.48,11.21.13,12.81-1.61.79-.86,3.91-13.11,5.25-18.13.79-2.95,12.26-2.63,12.26-2.63s35.68,43.17,35.25,44.61c-1.9,6.36-6.8,20.31-7.5,20.71-5.54,3.17-27.83,11.18-28.29,11.59-3.36,0-28.38,0-36.33-1-6.95-.89-89.53-14.8-90.71-14.73-4.83.3-19.66,8-23.48,8.46-5.94.72-28.09,2.74-33.17,1.57-14.09-3.23-94.43-20.2-97.94-20.94-4.38-.93-5.28-3.53-2.5-7.08,4.93-6.29,51.85-63.5,55.53-67.92,1.29-1.54,14.73,2.61,19.79,4.81,3,1.29,21.78,22.16,24,22.18,1.63,0,7.72-17.17,6.22-25.12a5.25,5.25,0,0,1-.06-1.19c.3-9.75-.39-38.25-1.52-42.56a41.29,41.29,0,0,0-8.79-17.12c-4-4.49-7.7-9.18-11.69-13.65-1.93-2.17.65-21.25,1.92-28.17.56-3.05-2.54-10.85-4-11.13-4-.77-27.69,8.56-28.56,9.4-4.92,4.8-10.17,9.23-15.05,14.07-1.28,1.27-72.46.44-74.51-.69-11.44-6.3-34.08-22.71-34.78-23.37-2-1.88-59.22-14.15-60.52-15.33-7.45-6.77-27.74-26-28.76-30.28C14,258.88,2.88,211.33,2.88,210.53Z" transform="translate(-2.88 -10)"/></g><g id="Layer_4_Image" data-name="Layer 4 Image"><path class="cls-2" d="M127.44,37.67c7.24-6.16,14.55-12.24,21.68-18.53a7.18,7.18,0,0,1,6.4-2c4,.59,8,.75,12.17,1.1.41,2.24,4,21.8,5.47,29.34.21,1.1-25.11,19.14-25.56,19.43-.44-.64-19.9-28.85-20.16-29.13Z" transform="translate(-2.88 -10)"/><path class="cls-2" d="M225.79,52.47c1.07,0,48.23-2.07,55.41-2.49.83,0,15.71,25.2,16.65,25.1,7.47-.74,72.36-7,78.63-7.61a8.48,8.48,0,0,1,5,.86Q428.69,92.73,476,117a2.24,2.24,0,0,1,1.36,1.85q1.44,9.63,2.95,19.26t3,19.37c1,6.37,7.39,47.76,8.09,52.45.06.4-34,95.72-34.38,96.2q-32.08,38.1-64.21,76.18c-.39.46-62.81,13-68.83,14.2-.5.1-11.61-4.35-11.75-5-2.57-12.07-5.07-24.16-7.8-36.19a5.37,5.37,0,0,1,1.62-5.63c4-4.16,7.84-8.54,11.73-12.83.14-.15-22.46-36.86-32.05-52.1-.42-.67-31.1-1.88-31.63-2.22C240,273.75,211,255.3,210.87,254.8c-1.13-6.35-9.65-55.25-10.64-62.55-1.29-9.57-17.47-61.3-22.76-78C177.24,113.52,225.75,52.52,225.79,52.47Z" transform="translate(-2.88 -10)"/><path class="cls-2" d="M362.22,429.34c3.42,2,29.24,16.72,38.79,22.12,1,.55-1.58,11.93-2.77,16.84a2.17,2.17,0,0,1-1.21,1.61c-7.49,3.93-23.72,12.25-24.4,11.66-7.55-6.48-23.32-20.48-23-21.19C353.62,450.57,362,429.94,362.22,429.34Z" transform="translate(-2.88 -10)"/><path class="cls-2" d="M498.09,121.79a20.52,20.52,0,0,1,2.84.36c13.3,3.64,40.49,11.16,40.9,11.29-.23.64-6.14,17.05-8.86,24.68a1.51,1.51,0,0,1-1.57,1.21c-8.41.51-28.64,1.91-30.43,2C500,148.23,499.06,135.13,498.09,121.79Z" transform="translate(-2.88 -10)"/></g><g id="Layer_3_Image" data-name="Layer 3 Image"><path class="cls-3" d="M65.32,262.1c.32-.29,12.72-30.66,14.81-36,1.89.46,78.56,20.25,84.12,21.73.38.1,13.9,19.41,20.33,28.77,0,0-119-14-119.26-14.29Z" transform="translate(-2.88 -10)"/><path class="cls-4" d="M65.32,262.1c.32-.29,21.08-1.53,26.24-1.72,7.08,1.42,44.92,6,50.37,7.08.23,0,7.53,22.45,7.53,22.45s-13.14,4.86-13.62,4.72c-6.56-1.81-13.15-3.5-19.62-5.59-2.85-.93-5.42-2.7-8.11-4.1-5.19-2.69-42.5-22.32-42.79-22.6Z" transform="translate(-2.88 -10)"/><path class="cls-4" d="M184.58,276.63s-3.65,1.73-5.52,2.42c-13.88,5.17-29.6,10.86-29.6,10.86l-7.53-22.45Z" transform="translate(-2.88 -10)"/><path class="cls-4" d="M420,331.91a3.25,3.25,0,0,1-.53.66C416.1,335.36,407.33,343,406.22,344c-.25.23-18.89-11.36-18.43-12.23C390.58,331.71,417.4,331.84,420,331.91Z" transform="translate(-2.88 -10)"/><path class="cls-3" d="M420,331.91a3.25,3.25,0,0,1-.53.66c-5.07,0-27.47-.64-31.66-.82,1.12-2.09,4.44-8.45,5.13-9.46.21-.31,2.57-.77,3.13-1.15,1.54-1,16.09-5.53,17.93-6,.26-.07,5.22,12.64,5.7,14.23A14.42,14.42,0,0,1,420,331.91Z" transform="translate(-2.88 -10)"/></g></svg>